<?xml version="1.0" encoding="UTF-8" standalone="no"?>
<svg width="960px" height="425px" viewBox="0 0 960 425" version="1.1" xmlns="http://www.w3.org/2000/svg" xmlns:xlink="http://www.w3.org/1999/xlink" xmlns:sketch="http://www.bohemiancoding.com/sketch/ns">
    <!-- Generator: Sketch 3.1.1 (8761) - http://www.bohemiancoding.com/sketch -->
    <title>people-narrow</title>
    <desc>Created with Sketch.</desc>
    <defs>
        <rect id="path-1" x="0" y="0" width="960" height="425"></rect>
    </defs>
    <g id="Page-1" stroke="none" stroke-width="1" fill="none" fill-rule="evenodd" sketch:type="MSPage">
        <g id="people-narrow" sketch:type="MSLayerGroup">
            <g id="Group">
                <rect id="Rectangle-path" fill="#F2EDE5" sketch:type="MSShapeGroup" x="0" y="0" width="960" height="425"></rect>
                <g id="Clipped">
                    <mask id="mask-2" sketch:name="SVGID_3_" fill="white">
                        <use xlink:href="#path-1"></use>
                    </mask>
                    <g id="SVGID_3_"></g>
                    <g id="Group" mask="url(#mask-2)" fill="#FFFFFF" sketch:type="MSShapeGroup">
                        <g transform="translate(-545.000000, -80.000000)" id="Shape">
                            <path d="M662.1,0 C661.7,0 661.3,0.2 661.2,0.6 L503.8,315.4 C503.6,315.7 503.7,316.1 503.8,316.4 C504,316.7 504.3,316.9 504.7,316.9 L819.3,316.9 C819.7,316.9 820,316.7 820.2,316.4 C820.4,316.1 820.4,315.7 820.2,315.4 L663,0.6 C662.8,0.2 662.5,0 662.1,0 L662.1,0 Z M506.5,314.8 L662.1,3.4 L817.7,314.8 L506.5,314.8 L506.5,314.8 Z"></path>
                            <path d="M410.4,503.7 C410,503.7 409.6,503.9 409.5,504.3 L0.5,1322.8 C0.3,1323.1 0.4,1323.5 0.5,1323.8 C0.7,1324.1 1,1324.3 1.4,1324.3 L819.5,1324.3 C819.9,1324.3 820.2,1324.1 820.4,1323.8 C820.6,1323.5 820.6,1323.1 820.4,1322.8 L411.4,504.3 C411.1,503.9 410.8,503.7 410.4,503.7 L410.4,503.7 Z M3,1322.2 L410.3,507.1 L817.6,1322.2 L3,1322.2 L3,1322.2 Z"></path>
                            <path d="M1480.2,0 C1479.8,0 1479.4,0.2 1479.3,0.6 L818.5,1322.7 C818.3,1323 818.4,1323.4 818.5,1323.7 C818.7,1324 819,1324.2 819.4,1324.2 L2140.9,1324.2 C2141.3,1324.2 2141.6,1324 2141.8,1323.7 C2142,1323.4 2142,1323 2141.8,1322.7 L1481.1,0.6 C1480.9,0.2 1480.5,0 1480.2,0 L1480.2,0 Z M821.1,1322.2 L1480.2,3.4 L2139.3,1322.2 L821.1,1322.2 L821.1,1322.2 Z"></path>
                            <path d="M725,314.8 C724.6,314.8 724.2,315 724.1,315.4 L629.7,504.2 C629.5,504.5 629.6,504.9 629.7,505.2 C629.9,505.5 630.2,505.7 630.6,505.7 L819.4,505.7 C819.8,505.7 820.1,505.5 820.3,505.2 C820.5,504.9 820.5,504.5 820.3,504.2 L725.9,315.3 C725.8,315 725.4,314.8 725,314.8 L725,314.8 Z M632.3,503.7 L725,318.2 L817.7,503.7 L632.3,503.7 L632.3,503.7 Z"></path>
                            <path d="M567.7,377.7 C567.3,377.7 566.9,377.9 566.8,378.3 L503.9,504.2 C503.7,504.5 503.8,504.9 503.9,505.2 C504.1,505.5 504.4,505.7 504.8,505.7 L630.6,505.7 C631,505.7 631.3,505.5 631.5,505.2 C631.7,504.9 631.7,504.5 631.5,504.2 L568.6,378.3 C568.5,378 568.1,377.7 567.7,377.7 L567.7,377.7 Z M506.5,503.7 L567.7,381.2 L628.9,503.7 L506.5,503.7 L506.5,503.7 Z"></path>
                            <path d="M536.2,314.8 C535.8,314.8 535.4,315 535.3,315.4 L503.8,378.4 C503.6,378.7 503.7,379.1 503.8,379.4 C504,379.7 504.3,379.9 504.7,379.9 L567.6,379.9 C568,379.9 568.3,379.7 568.5,379.4 C568.7,379.1 568.7,378.7 568.5,378.4 L537,315.4 C537,315 536.6,314.8 536.2,314.8 L536.2,314.8 Z M506.5,377.7 L536.3,318.1 L566,377.7 L506.5,377.7 L506.5,377.7 Z"></path>
                            <path d="M599.2,314.8 C598.8,314.8 598.4,315 598.3,315.4 L566.8,378.4 C566.6,378.7 566.7,379.1 566.8,379.4 C567,379.7 567.3,379.9 567.7,379.9 L630.6,379.9 C631,379.9 631.3,379.7 631.5,379.4 C631.7,379.1 631.7,378.7 631.5,378.4 L600,315.4 C599.9,315 599.6,314.8 599.2,314.8 L599.2,314.8 Z M569.4,377.7 L599.2,318.1 L629,377.7 L569.4,377.7 L569.4,377.7 Z"></path>
                        </g>
                    </g>
                </g>
                <g id="MzqrE8_1_" transform="translate(376.000000, 69.000000)" fill="#FFFFFF" sketch:type="MSShapeGroup">
                    <path d="M14.4,59.7 C16.9,60.9 19.5,61.9 21.8,63.4 C30.2,69.1 36.4,77 42.4,85 C43.3,86.3 44.2,87.6 45.4,89.1 C47.5,78.4 53.5,70.2 59.4,62.1 C72.7,43.7 87.8,26.9 103.4,10.6 C107,6.8 110.9,3.3 114.3,0.2 C113.2,3.6 111.5,7.7 110.5,11.8 C108,22.3 109.5,32.7 111.9,43 C115.9,59.9 122.9,75.6 131.3,90.8 C131.5,91.1 131.7,91.4 132.3,92.2 C133.7,72.9 143.4,57.8 153.6,42.5 C154.3,47.9 154.7,53 155.7,58 C158.4,71.1 162.8,83.7 168.3,95.8 C173.7,107.7 175.8,120.2 175.9,133.2 C175.9,142.5 175.4,151.7 175.1,161.1 C178.8,155.5 183.9,151.1 189.8,147.7 C195.5,144.4 201.5,141.4 207.4,138.3 C207.7,139 207.8,139.2 207.8,139.3 C198.2,153 194.3,168.7 191.8,184.8 C190.2,194.9 189.8,205.1 188,215.1 C185,232.2 178.2,247.7 166.2,260.6 C153.1,274.6 136.9,282.4 118.2,285.4 C116.2,285.7 114.2,285.9 111.8,286.2 C119.9,273.9 118.4,260.4 118.6,247 C116.4,250.1 114.8,253.2 112.3,255.6 C109.8,258 106.6,259.6 103.3,261.8 C103.1,240.6 92.7,223.8 83.6,205.7 C83.3,207 83.2,207.4 83.2,207.8 C83.4,214.7 81.7,221.3 78.3,227.3 C72.8,237.2 72.4,247.5 75.2,258.1 C76.4,262.8 78.4,267.4 80.2,272.7 C78.2,271 76.6,269.9 75.3,268.5 C68.4,261.1 63.8,252.2 59.3,243.3 C57,238.7 54.9,234 52.7,229.2 C49.8,242 55,264.2 71.6,283.3 C67.5,282.7 63.4,282.5 59.4,281.6 C40.5,277.4 27.3,265.6 18,249.2 C4.6,225.6 -1.6,200.1 0.3,172.8 C1.7,152.4 6.1,132.8 13.5,113.7 C19,99.3 21,84.2 16.8,68.9 C16.4,67.4 15.9,66 15.3,64.6 C14.8,63.3 14.1,62.1 13.6,60.8 C14,60.3 14.2,60 14.4,59.7 L14.4,59.7 Z M144,229.2 C144.6,228.3 145.1,227.4 145.7,226.5 C153.2,213.2 157,198.8 158.4,183.6 C160.1,164.9 158.2,146.5 154.1,128.3 C152.6,121.8 150.7,115.4 148.9,108.9 C148,114.7 147.6,120.3 146.9,125.8 C146.3,130.4 145.2,135 142.1,138.7 C140.5,140.6 138.8,141.2 136.8,139 C134.4,136.4 131.8,134 129.5,131.3 C116.7,116 108.3,98.3 101.4,79.8 C101,78.8 100.7,77.9 100.3,76.9 C99.9,77 99.6,77.1 99.2,77.2 C100.1,83.4 100.5,89.8 101.9,95.9 C106.1,114.3 114.4,130.9 124.6,146.7 C133.9,161.2 139.3,177.1 142.1,194 C143.9,205.6 144.2,217.3 144,229.2 L144,229.2 Z" id="Shape"></path>
                </g>
            </g>
        </g>
    </g>
</svg>