<?xml version="1.0" encoding="utf-8"?>
<!-- Generator: Adobe Illustrator 18.1.0, SVG Export Plug-In . SVG Version: 6.00 Build 0)  -->
<svg version="1.1" id="Layer_1" xmlns="http://www.w3.org/2000/svg" xmlns:xlink="http://www.w3.org/1999/xlink" x="0px" y="0px"
     viewBox="0 0 768 340" enable-background="new 0 0 768 340" xml:space="preserve">
<g>
    <g>
        <rect x="0" y="0" fill="#EEF3F5" width="768" height="340"/>
        <g>
            <g>
                <defs>
                    <rect id="SVGID_5_" x="-1.4" y="0" width="768" height="340"/>
                </defs>
                <clipPath id="SVGID_1_">
                    <use xlink:href="#SVGID_5_"  overflow="visible"/>
                </clipPath>
            </g>
        </g>
        <g>
            <defs>
                <rect id="SVGID_7_" x="0" y="0" width="768" height="340"/>
            </defs>
            <clipPath id="SVGID_2_">
                <use xlink:href="#SVGID_7_"  overflow="visible"/>
            </clipPath>
            <g clip-path="url(#SVGID_2_)">
                <g>
                    <path fill="#FFFFFF" d="M-75.7,274.3h-0.6v-18.4h0.6V274.3z"/>
                    <path fill="#FFFFFF" d="M-57.8,274.5L-76.2,256l0.4-0.4l18.4,18.4L-57.8,274.5z"/>
                    <path fill="#FFFFFF" d="M-68.6,274.4l-7.7-18.4l0.6-0.2l7.7,18.4L-68.6,274.4z"/>
                    <path fill="#FFFFFF" d="M-57.7,263.8l-18.4-7.7l0.2-0.6l18.4,7.7L-57.7,263.8z"/>
                    <path fill="#FFFFFF" d="M-72.7,274l-3.6-18.1l0.6-0.1l3.6,18.1L-72.7,274z"/>
                    <path fill="#FFFFFF" d="M-57.8,268.4l-18.4-12.4l0.3-0.5l18.4,12.4L-57.8,268.4z"/>
                    <path fill="#FFFFFF" d="M-63.9,274.4L-76.3,256l0.5-0.3l12.4,18.4L-63.9,274.4z"/>
                    <path fill="#FFFFFF" d="M-58,259.7l-18.1-3.6l0.1-0.6l18.1,3.6L-58,259.7z"/>
                    <path fill="#FFFFFF" d="M-75.7,274.3h-0.6v-18.4h0.6V274.3z"/>
                    <path fill="#FFFFFF" d="M-94.2,274.5l-0.4-0.4l18.4-18.4l0.4,0.4L-94.2,274.5z"/>
                    <path fill="#FFFFFF" d="M-94,263.8l-0.2-0.6l18.1-7.7l0.2,0.6L-94,263.8z"/>
                    <path fill="#FFFFFF" d="M-83.3,274.4l-0.6-0.2l7.5-18.4l0.6,0.2L-83.3,274.4z"/>
                    <path fill="#FFFFFF" d="M-94,259.7l-0.1-0.6l18.1-3.6l0.1,0.6L-94,259.7z"/>
                    <path fill="#FFFFFF" d="M-88.1,274.4l-0.5-0.3l12.3-18.4l0.5,0.3L-88.1,274.4z"/>
                    <path fill="#FFFFFF" d="M-94.3,268.4l-0.3-0.5l18.4-12.4l0.3,0.5L-94.3,268.4z"/>
                    <path fill="#FFFFFF" d="M-79.3,274l-0.6-0.1l3.6-18.1l0.6,0.1L-79.3,274z"/>
                    <path fill="#FFFFFF" d="M-57.6,256.1h-36.8v-0.6h36.8V256.1z"/>
                    <path fill="#FFFFFF" d="M-57.8,256l-36.8-36.9l0.4-0.4l36.8,36.9L-57.8,256z"/>
                    <path fill="#FFFFFF" d="M-57.9,255.9l-15.3-36.9l0.6-0.2l15.3,36.9L-57.9,255.9z"/>
                    <path fill="#FFFFFF" d="M-57.7,256.1l-36.8-15.3l0.2-0.6l36.8,15.3L-57.7,256.1z"/>
                    <path fill="#FFFFFF" d="M-57.9,255.9l-7.2-36.9l0.6-0.1l7.2,36.9L-57.9,255.9z"/>
                    <path fill="#FFFFFF" d="M-57.8,256.1l-36.8-24.6l0.3-0.5l36.8,24.6L-57.8,256.1z"/>
                    <path fill="#FFFFFF" d="M-57.9,256l-24.8-36.9l0.5-0.3l24.8,36.9L-57.9,256z"/>
                    <path fill="#FFFFFF" d="M-57.7,256.1l-36.8-7.4l0.1-0.6l36.8,7.4L-57.7,256.1z"/>
                    <path fill="#FFFFFF" d="M-57.3,274.3h-0.6v-55.3h0.6V274.3z"/>
                    <path fill="#FFFFFF" d="M-57.4,274.5l-0.4-0.4l55.2-55.3l0.4,0.4L-57.4,274.5z"/>
                    <path fill="#FFFFFF" d="M-57.5,274.5l-0.2-0.6l55.2-23l0.2,0.6L-57.5,274.5z"/>
                    <path fill="#FFFFFF" d="M-57.3,274.4l-0.6-0.2l23-55.3l0.6,0.2L-57.3,274.4z"/>
                    <path fill="#FFFFFF" d="M-57.5,274.6l-0.1-0.6l55.2-11.4l0.1,0.6L-57.5,274.6z"/>
                    <path fill="#FFFFFF" d="M-57.3,274.4l-0.5-0.3l37.1-55.3l0.5,0.3L-57.3,274.4z"/>
                    <path fill="#FFFFFF" d="M-57.4,274.5l-0.3-0.5l55.2-36.9l0.3,0.5L-57.4,274.5z"/>
                    <path fill="#FFFFFF" d="M-57.3,274.3l-0.6-0.1l11.5-55.3l0.6,0.1L-57.3,274.3z"/>
                    <path fill="#FFFFFF" d="M-2.4,274.6h-92.1v-0.6h92.1V274.6z"/>
                    <path fill="#FFFFFF" d="M-2.6,366.6l-92.1-92.2l0.4-0.4l92.1,92.2L-2.6,366.6z"/>
                    <path fill="#FFFFFF" d="M-56.4,366.5l-38.3-92.2l0.6-0.2l38.3,92.2L-56.4,366.5z"/>
                    <path fill="#FFFFFF" d="M-2.5,312.6l-92.1-38l0.2-0.6l92.1,38L-2.5,312.6z"/>
                    <path fill="#FFFFFF" d="M-76.3,366.5l-18.4-92.2l0.6-0.1l18.4,92.2L-76.3,366.5z"/>
                    <path fill="#FFFFFF" d="M-2.5,335.9l-92.1-61.4l0.3-0.5l92.1,61.4L-2.5,335.9z"/>
                    <path fill="#FFFFFF" d="M-33.5,366.6l-61.2-92.2l0.5-0.3l61.2,92.2L-33.5,366.6z"/>
                    <path fill="#FFFFFF" d="M-2.4,293l-92.1-18.4l0.1-0.6l92.1,18.4L-2.4,293z"/>
                    <path fill="#FFFFFF" d="M-94.1,366.4h-0.6V218.9h0.6V366.4z"/>
                    <path fill="#FFFFFF" d="M-241.5,366.6l-0.4-0.4l147.3-147.5l0.4,0.4L-241.5,366.6z"/>
                    <path fill="#FFFFFF" d="M-241.6,280.5l-0.2-0.6l147.3-61.3l0.2,0.6L-241.6,280.5z"/>
                    <path fill="#FFFFFF" d="M-154.6,366.5l-0.6-0.2l60.4-147.5l0.6,0.2L-154.6,366.5z"/>
                    <path fill="#FFFFFF" d="M-241.7,249.1l-0.1-0.6l147.3-29.8l0.1,0.6L-241.7,249.1z"/>
                    <path fill="#FFFFFF" d="M-192.6,366.6l-0.5-0.3l98.5-147.5l0.5,0.3L-192.6,366.6z"/>
                    <path fill="#FFFFFF" d="M-241.6,317.1l-0.3-0.5l147.3-97.9l0.3,0.5L-241.6,317.1z"/>
                    <path fill="#FFFFFF" d="M-124.3,366.5l-0.6-0.1l30.2-147.5l0.6,0.1L-124.3,366.5z"/>
                    <path fill="#FFFFFF" d="M-2.4,219.3h-239.4v-0.6H-2.4V219.3z"/>
                    <path fill="#FFFFFF" d="M-2.6,219.2L-241.9-20.5l0.4-0.4L-2.1,218.7L-2.6,219.2z"/>
                    <path fill="#FFFFFF" d="M-2.6,219.1l-99.5-239.7l0.6-0.2l99.5,239.7L-2.6,219.1z"/>
                    <path fill="#FFFFFF" d="M-2.5,219.2l-239.4-99.1l0.2-0.6l239.4,99.1L-2.5,219.2z"/>
                    <path fill="#FFFFFF" d="M-2.7,219L-49.6-20.6l0.6-0.1l46.9,239.7L-2.7,219z"/>
                    <path fill="#FFFFFF" d="M-2.5,219.2L-241.9,58.7l0.3-0.5L-2.2,218.7L-2.5,219.2z"/>
                    <path fill="#FFFFFF" d="M-2.6,219.1L-162.7-20.5l0.5-0.3L-2.1,218.8L-2.6,219.1z"/>
                    <path fill="#FFFFFF" d="M-2.4,219.3l-239.4-46.7l0.1-0.6l239.4,46.7L-2.4,219.3z"/>
                    <path fill="#FFFFFF" d="M-2.1,366.4h-0.6V-20.7h0.6V366.4z"/>
                    <path fill="#FFFFFF" d="M-2.1,366.6l-0.4-0.4L384.1-20.9l0.4,0.4L-2.1,366.6z"/>
                    <path fill="#FFFFFF" d="M-2.2,366.7l-0.2-0.6L384.2,206l0.2,0.6L-2.2,366.7z"/>
                    <path fill="#FFFFFF" d="M-2.1,366.5l-0.6-0.2L158.1-20.8l0.6,0.2L-2.1,366.5z"/>
                    <path fill="#FFFFFF" d="M-2.3,366.7l-0.1-0.6l386.6-77.5l0.1,0.6L-2.3,366.7z"/>
                    <path fill="#FFFFFF" d="M-2.1,366.6l-0.5-0.3L256.1-20.9l0.5,0.3L-2.1,366.6z"/>
                    <path fill="#FFFFFF" d="M-2.2,366.7l-0.3-0.5L384.1,108l0.3,0.5L-2.2,366.7z"/>
                    <path fill="#FFFFFF" d="M-2.1,366.5l-0.6-0.1L74.5-20.8l0.6,0.1L-2.1,366.5z"/>
                </g>
                <g>
                    <path fill="#FFFFFF" d="M843.7,255.8h0.6v18.4h-0.6V255.8z"/>
                    <path fill="#FFFFFF" d="M825.4,274l18.4-18.4l0.4,0.4l-18.4,18.4L825.4,274z"/>
                    <path fill="#FFFFFF" d="M836.1,274.1l7.7-18.4l0.6,0.2l-7.7,18.4L836.1,274.1z"/>
                    <path fill="#FFFFFF" d="M825.5,263.2l18.4-7.7l0.2,0.6l-18.4,7.7L825.5,263.2z"/>
                    <path fill="#FFFFFF" d="M840.1,273.8l3.6-18.1l0.6,0.1l-3.6,18.1L840.1,273.8z"/>
                    <path fill="#FFFFFF" d="M825.4,267.9l18.4-12.4l0.3,0.5l-18.4,12.4L825.4,267.9z"/>
                    <path fill="#FFFFFF" d="M831.4,274.1l12.4-18.4l0.5,0.3l-12.4,18.4L831.4,274.1z"/>
                    <path fill="#FFFFFF" d="M825.9,259.1l18.1-3.6l0.1,0.6l-18.1,3.6L825.9,259.1z"/>
                    <path fill="#FFFFFF" d="M843.7,255.8h0.6v18.4h-0.6V255.8z"/>
                    <path fill="#FFFFFF" d="M843.8,256l0.4-0.4l18.4,18.4l-0.4,0.4L843.8,256z"/>
                    <path fill="#FFFFFF" d="M843.9,256.1l0.2-0.6l18.1,7.7l-0.2,0.6L843.9,256.1z"/>
                    <path fill="#FFFFFF" d="M843.7,255.9l0.6-0.2l7.5,18.4l-0.6,0.2L843.7,255.9z"/>
                    <path fill="#FFFFFF" d="M844,256.1l0.1-0.6l18.1,3.6l-0.1,0.6L844,256.1z"/>
                    <path fill="#FFFFFF" d="M843.8,256l0.5-0.3l12.3,18.4l-0.5,0.3L843.8,256z"/>
                    <path fill="#FFFFFF" d="M843.8,256.1l0.3-0.5l18.4,12.4l-0.3,0.5L843.8,256.1z"/>
                    <path fill="#FFFFFF" d="M843.7,255.9l0.6-0.1l3.6,18.1l-0.6,0.1L843.7,255.9z"/>
                    <path fill="#FFFFFF" d="M825.6,255.5h36.8v0.6h-36.8V255.5z"/>
                    <path fill="#FFFFFF" d="M825.4,255.6l36.8-36.9l0.4,0.4L825.8,256L825.4,255.6z"/>
                    <path fill="#FFFFFF" d="M825.3,255.7l15.3-36.9l0.6,0.2l-15.3,36.9L825.3,255.7z"/>
                    <path fill="#FFFFFF" d="M825.5,255.5l36.8-15.3l0.2,0.6l-36.8,15.3L825.5,255.5z"/>
                    <path fill="#FFFFFF" d="M825.3,255.8l7.2-36.9l0.6,0.1l-7.2,36.9L825.3,255.8z"/>
                    <path fill="#FFFFFF" d="M825.4,255.6l36.8-24.6l0.3,0.5l-36.8,24.6L825.4,255.6z"/>
                    <path fill="#FFFFFF" d="M825.3,255.6l24.8-36.9l0.5,0.3L825.9,256L825.3,255.6z"/>
                    <path fill="#FFFFFF" d="M825.5,255.5l36.8-7.4l0.1,0.6l-36.8,7.4L825.5,255.5z"/>
                    <path fill="#FFFFFF" d="M825.3,218.9h0.6v55.3h-0.6V218.9z"/>
                    <path fill="#FFFFFF" d="M770.1,219.2l0.4-0.4l55.2,55.3l-0.4,0.4L770.1,219.2z"/>
                    <path fill="#FFFFFF" d="M770.2,251.5l0.2-0.6l55.2,23l-0.2,0.6L770.2,251.5z"/>
                    <path fill="#FFFFFF" d="M802.4,219.1l0.6-0.2l23,55.3l-0.6,0.2L802.4,219.1z"/>
                    <path fill="#FFFFFF" d="M770.3,263.2l0.1-0.6l55.2,11.4l-0.1,0.6L770.3,263.2z"/>
                    <path fill="#FFFFFF" d="M788.3,219.1l0.5-0.3l37.1,55.3l-0.5,0.3L788.3,219.1z"/>
                    <path fill="#FFFFFF" d="M770.2,237.6l0.3-0.5l55.2,36.9l-0.3,0.5L770.2,237.6z"/>
                    <path fill="#FFFFFF" d="M813.8,219l0.6-0.1l11.5,55.3l-0.6,0.1L813.8,219z"/>
                    <path fill="#FFFFFF" d="M770.4,273.9h92.1v0.6h-92.1V273.9z"/>
                    <path fill="#FFFFFF" d="M770.1,366.2l92.1-92.2l0.4,0.4l-92.1,92.2L770.1,366.2z"/>
                    <path fill="#FFFFFF" d="M823.9,366.3l38.3-92.2l0.6,0.2l-38.3,92.2L823.9,366.3z"/>
                    <path fill="#FFFFFF" d="M770.2,312l92.1-38l0.2,0.6l-92.1,38L770.2,312z"/>
                    <path fill="#FFFFFF" d="M843.7,366.4l18.4-92.2l0.6,0.1l-18.4,92.2L843.7,366.4z"/>
                    <path fill="#FFFFFF" d="M770.2,335.4l92.1-61.4l0.3,0.5l-92.1,61.4L770.2,335.4z"/>
                    <path fill="#FFFFFF" d="M800.9,366.3l61.2-92.2l0.5,0.3l-61.2,92.2L800.9,366.3z"/>
                    <path fill="#FFFFFF" d="M770.3,292.4l92.1-18.4l0.1,0.6L770.4,293L770.3,292.4z"/>
                    <path fill="#FFFFFF" d="M862.1,218.9h0.6v147.5h-0.6V218.9z"/>
                    <path fill="#FFFFFF" d="M862.2,219.2l0.4-0.4l147.3,147.5l-0.4,0.4L862.2,219.2z"/>
                    <path fill="#FFFFFF" d="M862.3,219.2l0.2-0.6l147.3,61.3l-0.2,0.6L862.3,219.2z"/>
                    <path fill="#FFFFFF" d="M862.1,219.1l0.6-0.2l60.4,147.5l-0.6,0.2L862.1,219.1z"/>
                    <path fill="#FFFFFF" d="M862.4,219.2l0.1-0.6l147.3,29.8l-0.1,0.6L862.4,219.2z"/>
                    <path fill="#FFFFFF" d="M862.2,219.1l0.5-0.3l98.5,147.5l-0.5,0.3L862.2,219.1z"/>
                    <path fill="#FFFFFF" d="M862.3,219.2l0.3-0.5l147.3,97.9l-0.3,0.5L862.3,219.2z"/>
                    <path fill="#FFFFFF" d="M862.1,219l0.6-0.1l30.2,147.5l-0.6,0.1L862.1,219z"/>
                    <path fill="#FFFFFF" d="M770.4,218.6h239.4v0.6H770.4V218.6z"/>
                    <path fill="#FFFFFF" d="M770.1,218.7l239.4-239.7l0.4,0.4L770.6,219.2L770.1,218.7z"/>
                    <path fill="#FFFFFF" d="M770.1,218.8l99.5-239.7l0.6,0.2l-99.5,239.7L770.1,218.8z"/>
                    <path fill="#FFFFFF" d="M770.2,218.7l239.4-99.1l0.2,0.6l-239.4,99.1L770.2,218.7z"/>
                    <path fill="#FFFFFF" d="M770.1,218.9L817-20.8l0.6,0.1L770.7,219L770.1,218.9z"/>
                    <path fill="#FFFFFF" d="M770.2,218.7l239.4-160.5l0.3,0.5L770.5,219.2L770.2,218.7z"/>
                    <path fill="#FFFFFF" d="M770.1,218.8L930.2-20.9l0.5,0.3L770.6,219.1L770.1,218.8z"/>
                    <path fill="#FFFFFF" d="M770.3,218.6l239.4-46.7l0.1,0.6l-239.4,46.7L770.3,218.6z"/>
                    <path fill="#FFFFFF" d="M770.1-20.7h0.6v387.1h-0.6V-20.7z"/>
                    <path fill="#FFFFFF" d="M383.5-20.5l0.4-0.4l386.6,387.1l-0.4,0.4L383.5-20.5z"/>
                    <path fill="#FFFFFF" d="M383.6,206.5l0.2-0.6l386.6,160.2l-0.2,0.6L383.6,206.5z"/>
                    <path fill="#FFFFFF" d="M609.3-20.6l0.6-0.2l160.7,387.1l-0.6,0.2L609.3-20.6z"/>
                    <path fill="#FFFFFF" d="M383.7,289.3l0.1-0.6l386.6,77.5l-0.1,0.6L383.7,289.3z"/>
                    <path fill="#FFFFFF" d="M511.4-20.5l0.5-0.3l258.7,387.1l-0.5,0.3L511.4-20.5z"/>
                    <path fill="#FFFFFF" d="M383.6,108.5l0.3-0.5l386.6,258.2l-0.3,0.5L383.6,108.5z"/>
                    <path fill="#FFFFFF" d="M692.9-20.6l0.6-0.1l77.1,387.1l-0.6,0.1L692.9-20.6z"/>
                </g>
            </g>
        </g>
    </g>


</g>
</svg>
