<?xml version="1.0" encoding="UTF-8" standalone="no"?>
<svg width="768px" height="340px" viewBox="0 0 768 340" version="1.1" xmlns="http://www.w3.org/2000/svg" xmlns:xlink="http://www.w3.org/1999/xlink" xmlns:sketch="http://www.bohemiancoding.com/sketch/ns">
    <!-- Generator: Sketch 3.1.1 (8761) - http://www.bohemiancoding.com/sketch -->
    <title>culture-narrow</title>
    <desc>Created with Sketch.</desc>
    <defs>
        <rect id="path-1" x="0" y="0" width="768" height="340"></rect>
    </defs>
    <g id="Page-1" stroke="none" stroke-width="1" fill="none" fill-rule="evenodd" sketch:type="MSPage">
        <g id="culture-narrow" sketch:type="MSLayerGroup">
            <g id="Group">
                <rect id="Rectangle-path" fill="#F2EDE5" sketch:type="MSShapeGroup" x="0" y="0" width="768" height="340"></rect>
                <g id="Clipped">
                    <mask id="mask-2" sketch:name="SVGID_1_" fill="white">
                        <use xlink:href="#path-1"></use>
                    </mask>
                    <g id="SVGID_1_"></g>
                    <g id="Group" mask="url(#mask-2)" fill="#FFFFFF" sketch:type="MSShapeGroup">
                        <g transform="translate(-436.000000, -64.000000)" id="Shape">
                            <path d="M529.7,0.3 C529.4,0.3 529.1,0.5 529,0.8 L403.1,252.6 C403,252.9 403,253.2 403.1,253.4 C403.3,253.6 403.5,253.8 403.8,253.8 L655.5,253.8 C655.8,253.8 656.1,253.6 656.2,253.4 C656.4,253.2 656.4,252.8 656.2,252.6 L530.4,0.8 C530.3,0.5 530,0.3 529.7,0.3 L529.7,0.3 Z M405.2,252.2 L529.7,3 L654.2,252.1 L405.2,252.1 L405.2,252.2 Z"></path>
                            <path d="M328.3,403.3 C328,403.3 327.7,403.5 327.6,403.8 L0.4,1058.6 C0.3,1058.9 0.3,1059.2 0.4,1059.4 C0.6,1059.6 0.8,1059.8 1.1,1059.8 L655.6,1059.8 C655.9,1059.8 656.2,1059.6 656.3,1059.4 C656.5,1059.2 656.5,1058.8 656.3,1058.6 L329,403.7 C328.9,403.5 328.6,403.3 328.3,403.3 L328.3,403.3 Z M2.4,1058.1 L328.3,406 L654.2,1058.1 L2.4,1058.1 L2.4,1058.1 Z"></path>
                            <path d="M1184.1,0.3 C1183.8,0.3 1183.5,0.5 1183.4,0.8 L654.8,1058.5 C654.7,1058.8 654.7,1059.1 654.8,1059.3 C655,1059.5 655.2,1059.7 655.5,1059.7 L1712.7,1059.7 C1713,1059.7 1713.3,1059.5 1713.4,1059.3 C1713.6,1059.1 1713.6,1058.7 1713.4,1058.5 L1184.9,0.8 C1184.7,0.5 1184.4,0.3 1184.1,0.3 L1184.1,0.3 Z M656.9,1058.1 L1184.1,3 L1711.4,1058 L656.9,1058 L656.9,1058.1 Z"></path>
                            <path d="M580,252.2 C579.7,252.2 579.4,252.4 579.3,252.7 L503.8,403.7 C503.7,404 503.7,404.3 503.8,404.5 C504,404.7 504.2,404.9 504.5,404.9 L655.5,404.9 C655.8,404.9 656.1,404.7 656.2,404.5 C656.4,404.3 656.4,403.9 656.2,403.7 L580.7,252.6 C580.6,252.4 580.3,252.2 580,252.2 L580,252.2 Z M505.9,403.3 L580,254.9 L654.2,403.3 L505.9,403.3 L505.9,403.3 Z"></path>
                            <path d="M454.2,302.5 C453.9,302.5 453.6,302.7 453.5,303 L403.2,403.7 C403.1,404 403.1,404.3 403.2,404.5 C403.4,404.7 403.6,404.9 403.9,404.9 L504.5,404.9 C504.8,404.9 505.1,404.7 505.2,404.5 C505.4,404.3 505.4,403.9 505.2,403.7 L454.9,303 C454.8,302.7 454.5,302.5 454.2,302.5 L454.2,302.5 Z M405.2,403.3 L454.2,305.3 L503.2,403.3 L405.2,403.3 L405.2,403.3 Z"></path>
                            <path d="M429,252.2 C428.7,252.2 428.4,252.4 428.3,252.7 L403.1,303 C403,303.3 403,303.6 403.1,303.8 C403.3,304 403.5,304.2 403.8,304.2 L454.1,304.2 C454.4,304.2 454.7,304 454.8,303.8 C455,303.6 455,303.2 454.8,303 L429.6,252.6 C429.6,252.4 429.3,252.2 429,252.2 L429,252.2 Z M405.2,302.5 L429,254.9 L452.8,302.6 L405.2,302.6 L405.2,302.5 Z"></path>
                            <path d="M479.3,252.2 C479,252.2 478.7,252.4 478.6,252.7 L453.4,303 C453.3,303.3 453.3,303.6 453.4,303.8 C453.6,304 453.8,304.2 454.1,304.2 L504.4,304.2 C504.7,304.2 505,304 505.1,303.8 C505.3,303.6 505.3,303.2 505.1,303 L479.9,252.6 C479.9,252.4 479.6,252.2 479.3,252.2 L479.3,252.2 Z M455.5,302.5 L479.3,254.8 L503.1,302.5 L455.5,302.5 L455.5,302.5 Z"></path>
                        </g>
                    </g>
                </g>
                <path d="M427,80.1 L384,107.3 L341,80.1 L293.3,113.5 L293.3,180.4 L384,259.9 L474.7,180.4 L474.7,113.5 L427,80.1 Z" id="favorite-5-icon_3_" fill="#FFFFFF" sketch:type="MSShapeGroup"></path>
            </g>
        </g>
    </g>
</svg>